<svg xmlns="http://www.w3.org/2000/svg" width="770" height="460" viewBox="0 0 770 460" role="img" aria-labelledby="title desc">
  <title id="title">Automation and tests service</title>
  <desc id="desc">Illustration of test checkmarks, workflow automation, and code quality.</desc>
  <rect width="770" height="460" rx="34" fill="#fff9f1"/>
  <circle cx="620" cy="108" r="76" fill="#fd79a8" opacity=".16"/>
  <circle cx="150" cy="350" r="88" fill="#fdcb6e" opacity=".25"/>
  <rect x="106" y="94" width="558" height="272" rx="28" fill="#182034"/>
  <rect x="150" y="138" width="198" height="34" rx="12" fill="#ffffff" opacity=".12"/>
  <rect x="150" y="198" width="470" height="28" rx="14" fill="#ffffff" opacity=".1"/>
  <rect x="150" y="250" width="470" height="28" rx="14" fill="#ffffff" opacity=".1"/>
  <rect x="150" y="302" width="470" height="28" rx="14" fill="#ffffff" opacity=".1"/>
  <circle cx="184" cy="212" r="18" fill="#00b894"/>
  <path d="M174 212l8 8 15-18" fill="none" stroke="#fff" stroke-width="5" stroke-linecap="round" stroke-linejoin="round"/>
  <circle cx="184" cy="264" r="18" fill="#00b894"/>
  <path d="M174 264l8 8 15-18" fill="none" stroke="#fff" stroke-width="5" stroke-linecap="round" stroke-linejoin="round"/>
  <circle cx="184" cy="316" r="18" fill="#fdcb6e"/>
  <path d="M174 316l8 8 15-18" fill="none" stroke="#fff" stroke-width="5" stroke-linecap="round" stroke-linejoin="round"/>
  <rect x="236" y="202" width="250" height="20" rx="10" fill="#74b9ff"/>
  <rect x="236" y="254" width="308" height="20" rx="10" fill="#a29bfe"/>
  <rect x="236" y="306" width="210" height="20" rx="10" fill="#fdcb6e"/>
</svg>
